# xmcd
# 
# Track frame offsets:
#     150
#     14377
#     33545
#     51609
#     69079
#     86738
#     105350
#     120406
#     136165
#     153967
# 
# Disc length: 2281
# 
# Revision: 0
# Processed by: cddbd v1.5.2PL0 Copyright (c) Steve Scherf et al.
# Submitted via: BonkEnc v1.0.8
# 
DISCID=7808e70a
DTITLE=MATT RAMSEY - A DIFFERENT MAN ON A DIFFERENT ROAD
DYEAR=2008
DGENRE=Country
TTITLE0=Come With Me
TTITLE1=It Still Hurts
TTITLE2=What Kind Of Man
TTITLE3=A Mile Ago
TTITLE4=Heaven Knows
TTITLE5=The Good Years
TTITLE6=Better
TTITLE7=Back Where You Loved Me
TTITLE8=This Blue Collar
TTITLE9=Those Days
EXTD=
EXTT0=
EXTT1=
EXTT2=
EXTT3=
EXTT4=
EXTT5=
EXTT6=
EXTT7=
EXTT8=
EXTT9=
PLAYORDER=
